# xmcd
#
# Track frame offsets: 
#        150
#        9830
#        21646
#        33832
#        46020
#        57360
#        67606
#        76592
#        90661
#        102002
#        113071
#        128124
#        141881
#        154307
#        167046
#        180826
#        194770
#        202168
#        214480
#        226612
#
# Disc length: 3147 seconds
#
# Revision: 0
# Processed by: cddbd v1.5.2PL0 Copyright (c) Steve Scherf et al.
# Submitted via: ExactAudioCopy v1.0b3
#
DISCID=fe0c4914
DTITLE=Various Artist - Spirit Of Country [CD4]
DYEAR=2013
DGENRE=Country
TTITLE0=Frankie Laine - O.K. Corral
TTITLE1=Waylon Jennings - Crying
TTITLE2=Lynn Anderson - Stand By Your Man
TTITLE3=Hank Williams - Your Cheating Heart
TTITLE4=Bill Anderson and Vince Gill - Slippin' Away
TTITLE5=Dave Duddley - Six Days On The Road
TTITLE6=Freddy Cannon - California Here I Come
TTITLE7=Tex Ritter - Conversation With A Gun
TTITLE8=Carl Smith - Hey Joe
TTITLE9=Conway Twitty - It's Only Make Believe
TTITLE10=Jeannie C. Riley - Harper Valley P.T.A.
TTITLE11=Red Foley and Ernest Tubb - Goodnight Irene
TTITLE12=Faron Young - It's Four In The Morning
TTITLE13=Peter, Paul and mary - 500 Miles
TTITLE14=Doug Stone - Addicted To A Dollar
TTITLE15=Lacy J. Dalton - Tennessee Waltz
TTITLE16=Merle Haggard - I Am A Lonesome Fugitive
TTITLE17=Johnny Paycheck - Take This Job And Shove It
TTITLE18=Clint Eastwood - Bouquet Of Roses
TTITLE19=Jerry Lee Lewis - Country Music Is Here To Stay
EXTD=
EXTT0=
EXTT1=
EXTT2=
EXTT3=
EXTT4=
EXTT5=
EXTT6=
EXTT7=
EXTT8=
EXTT9=
EXTT10=
EXTT11=
EXTT12=
EXTT13=
EXTT14=
EXTT15=
EXTT16=
EXTT17=
EXTT18=
EXTT19=
PLAYORDER=
